<mxfile host="app.diagrams.net" modified="2023-09-12T22:25:57.861Z" agent="Mozilla/5.0 (X11; Linux x86_64) AppleWebKit/537.36 (KHTML, like Gecko) Chrome/116.0.0.0 Safari/537.36" version="21.7.4" etag="WnxoWaFqzkNxko4Y75po" type="github">
  <diagram name="Page-1" id="BHZyM05tD3jb8Pq_gUmD">
    <mxGraphModel>
      <root>
        <mxCell id="0" />
        <mxCell id="1" parent="0" />
      </root>
    </mxGraphModel>
  </diagram>
</mxfile>
